<svg xmlns="http://www.w3.org/2000/svg" width="24" height="24" viewBox="0 0 24 24">
  <g id="Group_5632" data-name="Group 5632" transform="translate(-24 -418)">
    <rect id="Rectangle_2716" data-name="Rectangle 2716" width="24" height="24" transform="translate(24 418)" fill="#fff"/>
    <path id="gears" d="M30.915,28.958a3.622,3.622,0,1,0,4.733,1.96,3.627,3.627,0,0,0-4.733-1.96Zm2.311,5.578a2.415,2.415,0,1,1,1.307-3.155A2.418,2.418,0,0,1,33.225,34.536Zm5.69-1.638a6.6,6.6,0,0,0,0-1.188L40,30.733l-.09-.353a7.817,7.817,0,0,0-.868-2.094l-.186-.313-1.457.074a6.6,6.6,0,0,0-.841-.839l.075-1.459-.313-.186a7.881,7.881,0,0,0-2.095-.868l-.353-.09-.979,1.084a6.614,6.614,0,0,0-1.188,0l-.977-1.083-.353.09a7.817,7.817,0,0,0-2.094.868l-.313.186.074,1.457a6.6,6.6,0,0,0-.839.841l-1.459-.075-.186.313a7.881,7.881,0,0,0-.868,2.095l-.09.353,1.084.979a6.607,6.607,0,0,0,0,1.188l-1.083.977.09.353a7.817,7.817,0,0,0,.868,2.094l.186.313,1.457-.075a6.6,6.6,0,0,0,.841.839l-.075,1.459.313.186a7.881,7.881,0,0,0,2.095.868l.353.09.979-1.084a6.616,6.616,0,0,0,1.188,0L33.873,40l.353-.09a7.817,7.817,0,0,0,2.094-.868l.313-.186L36.559,37.4a6.6,6.6,0,0,0,.839-.841l1.459.075.186-.313a7.881,7.881,0,0,0,.868-2.095l.09-.353L38.916,32.9Zm-.735,2.495-1.351-.069-.193.256a5.4,5.4,0,0,1-1.06,1.062l-.256.193.069,1.349q-.268.141-.547.257c-.184.076-.374.145-.568.205l-.905-1-.317.044a5.4,5.4,0,0,1-1.5,0l-.317-.045-.907,1a6.673,6.673,0,0,1-1.115-.462l.069-1.351-.256-.193a5.4,5.4,0,0,1-1.062-1.06l-.193-.256-1.349.069q-.141-.268-.257-.547t-.205-.568l1-.905-.044-.317a5.4,5.4,0,0,1,0-1.5l.045-.317-1-.907a6.672,6.672,0,0,1,.462-1.115l1.351.069.193-.256a5.4,5.4,0,0,1,1.06-1.062l.256-.193-.069-1.349q.268-.141.547-.257t.568-.205l.905,1,.317-.044a5.389,5.389,0,0,1,1.5,0l.317.045.907-1a6.673,6.673,0,0,1,1.115.462l-.069,1.351.256.193a5.4,5.4,0,0,1,1.062,1.06l.193.256,1.349-.069q.141.268.257.547c.076.184.145.374.205.568l-1,.905.044.317a5.4,5.4,0,0,1,0,1.5l-.045.317,1,.907a6.672,6.672,0,0,1-.462,1.115ZM22.037,19.626a2.415,2.415,0,1,0,2.415,2.415A2.418,2.418,0,0,0,22.037,19.626Zm0,3.622a1.207,1.207,0,1,1,1.207-1.207A1.209,1.209,0,0,1,22.037,23.249Zm3.413,3.772a6.038,6.038,0,0,0,1.566-1.566l.235-.342-.786-1.142q.035-.081.068-.163l1.363-.251.076-.408a6,6,0,0,0,0-2.215l-.076-.408-1.363-.251q-.032-.082-.068-.163l.786-1.142-.235-.342a6.039,6.039,0,0,0-1.566-1.566l-.342-.235-1.142.786q-.081-.035-.163-.068l-.251-1.363-.408-.076a6.029,6.029,0,0,0-2.215,0l-.408.076-.251,1.363q-.082.032-.163.068l-1.142-.786-.342.235a6.039,6.039,0,0,0-1.566,1.566l-.235.342.786,1.142q-.035.081-.068.163l-1.363.251-.076.408a6,6,0,0,0,0,2.215l.076.408,1.363.251q.032.082.068.163l-.786,1.142.235.342a6.038,6.038,0,0,0,1.566,1.566l.342.235,1.141-.786c.054.024.109.046.163.068l.251,1.362.408.076a6,6,0,0,0,2.215,0l.408-.076.251-1.363q.082-.032.163-.067l1.142.786.342-.235Zm-1.39-1.953-.324.173a3.608,3.608,0,0,1-.639.265l-.351.107-.227,1.233a4.723,4.723,0,0,1-.964,0l-.227-1.234-.352-.107a3.516,3.516,0,0,1-.638-.265l-.324-.173-1.034.712A4.824,4.824,0,0,1,18.3,25.1l.712-1.034-.173-.324a3.6,3.6,0,0,1-.265-.639l-.107-.351-1.233-.227a4.673,4.673,0,0,1-.025-.482,4.757,4.757,0,0,1,.025-.482l1.233-.227.107-.351a3.6,3.6,0,0,1,.265-.639l.173-.324L18.3,18.984a4.82,4.82,0,0,1,.682-.682l1.034.712.324-.173a3.6,3.6,0,0,1,.639-.265l.351-.107.227-1.233a4.723,4.723,0,0,1,.964,0l.227,1.233.351.107a3.6,3.6,0,0,1,.639.265l.324.173,1.034-.712a4.82,4.82,0,0,1,.682.682l-.712,1.034.173.324a3.6,3.6,0,0,1,.265.639l.107.351,1.233.227a4.7,4.7,0,0,1,0,.964l-1.233.227L25.5,23.1a3.6,3.6,0,0,1-.265.639l-.173.324.712,1.034a4.824,4.824,0,0,1-.682.682l-1.034-.712Z" transform="translate(8 401.996)"/>
  </g>
</svg>
