<svg xmlns="http://www.w3.org/2000/svg" width="24" height="24" viewBox="0 0 24 24">
  <g id="Group_6136" data-name="Group 6136" transform="translate(-17 -493)">
    <rect id="Rectangle_2796" data-name="Rectangle 2796" width="24" height="24" transform="translate(17 493)" fill="#fff"/>
    <path id="filter-air" d="M21.263,61.895H42.737v1.263H21.263ZM42.737,48H21.263v1.263H42.737ZM44,50.526V60.632H20V50.526ZM22.526,59.368V51.789H21.263v7.579Zm2.526,0V51.789H23.789v7.579Zm2.526,0V51.789H26.316v7.579Zm2.526,0V51.789H28.842v7.579Zm2.526,0V51.789H31.368v7.579Zm2.526,0V51.789H33.895v7.579Zm2.526,0V51.789H36.421v7.579Zm2.526,0V51.789H38.947v7.579Zm2.526-7.579H41.474v7.579h1.263Z" transform="translate(-3 449)"/>
    <path id="filter-air_-_Outline" data-name="filter-air - Outline" d="M42.537,62.958v-.863H21.463v.863H42.537M43.8,60.432V50.726H20.2v9.705H43.8m-2.526-8.842h1.663v7.979H41.274V51.589m-2.526,0h1.663v7.979H38.747V51.589m-2.526,0h1.663v7.979H36.221V51.589m-2.526,0h1.663v7.979H33.695V51.589m-2.526,0h1.663v7.979H31.168V51.589m-2.526,0h1.663v7.979H28.642V51.589m-2.526,0h1.663v7.979H26.116V51.589m-2.526,0h1.663v7.979H23.589V51.589m-2.526,0h1.663v7.979H21.063V51.589m21.474-2.526V48.2H21.463v.863H42.537m.2,14.095H21.263V61.895H42.737ZM44,60.632H20V50.526H44Zm-2.526-8.842v7.579h1.263V51.789Zm-2.526,0v7.579h1.263V51.789Zm-2.526,0v7.579h1.263V51.789Zm-2.526,0v7.579h1.263V51.789Zm-2.526,0v7.579h1.263V51.789Zm-2.526,0v7.579h1.263V51.789Zm-2.526,0v7.579h1.263V51.789Zm-2.526,0v7.579h1.263V51.789Zm-2.526,0v7.579h1.263V51.789Zm21.474-2.526H21.263V48H42.737Z" transform="translate(-3 449)" fill="#707070"/>
  </g>
</svg>
