<svg xmlns="http://www.w3.org/2000/svg" width="21.056" height="24" viewBox="0 0 21.056 24">
  <path id="Appliance_Info" data-name="Appliance Info" d="M10.3,18.624A5.376,5.376,0,1,1,15.679,24,5.372,5.372,0,0,1,10.3,18.624Zm1.195,0a4.181,4.181,0,1,0,4.181-4.182A4.193,4.193,0,0,0,11.5,18.624Zm-.608,4.927H2.109A2.111,2.111,0,0,1,0,21.442V2.109A2.111,2.111,0,0,1,2.109,0H17.223a2.111,2.111,0,0,1,2.109,2.109v10.7a6.82,6.82,0,0,0-1.406-.669V2.109a.7.7,0,0,0-.7-.7H2.109a.7.7,0,0,0-.7.7V21.442a.7.7,0,0,0,.7.7H9.788a6.92,6.92,0,0,0,1.1,1.405l0,0Zm4.191-1.941V17.429h1.195V21.61ZM7.545,20.585H6.14V17.114H7.546v3.47h0Zm-2.812,0H3.328V17.114H4.734v3.47h0Zm10.349-4.35a.6.6,0,1,1,.6.6A.6.6,0,0,1,15.082,16.234Zm-5.865.132H8.952V12.9h1.406v1.432a6.842,6.842,0,0,0-1.14,2.039h0Zm-1.672,0H6.14V12.9H7.546v3.471h0Zm-2.812,0H3.328V12.9H4.734v3.471h0Zm8.437-4.218H11.764V8.678h1.407v3.47h0Zm-2.813,0H8.952V8.678h1.406v3.47h0Zm-2.812,0H6.14V8.678H7.546v3.47h0Zm-2.812,0H3.328V8.678H4.734v3.47h0Zm9.843-.282V8.678h1.406v3.1c-.087,0-.182-.005-.282-.005a6.919,6.919,0,0,0-1.123.092Zm1.9-4.736H2.625V5.726H16.474V7.131h0ZM6.14,3.617A1.054,1.054,0,1,1,7.194,4.671,1.056,1.056,0,0,1,6.14,3.617Zm7.03.7H8.952V2.914h4.219V4.319h0Z"/>
</svg>
