<svg xmlns="http://www.w3.org/2000/svg" width="40" height="32" viewBox="0 0 40 32">
  <path id="device-thermostat-BCC100-72" d="M51,34a3,3,0,0,1,3,3V59a3,3,0,0,1-3,3H21a3,3,0,0,1-3-3V37a3,3,0,0,1,3-3H51m0-2H21a5,5,0,0,0-5,5V59a5,5,0,0,0,5,5H51a5,5,0,0,0,5-5V37A5,5,0,0,0,51,32ZM29.677,52.5a11.84,11.84,0,0,1,3.091-7.45H28.462V43.5h6.17v1.46A11.7,11.7,0,0,0,31.774,52.5Zm6.157-1.535a16.5,16.5,0,0,0,2.515-1.85,4.2,4.2,0,0,0,1.632-2.958c0-.78-.4-1.246-1.1-1.246-.663,0-1.055.4-1.312,1.359l-1.718-.428a2.945,2.945,0,0,1,3.116-2.479,2.7,2.7,0,0,1,2.993,2.819,4.371,4.371,0,0,1-1.521,3.209,11.226,11.226,0,0,1-2.1,1.56h3.717V52.5h-6.22Zm8.312-7.532A1.262,1.262,0,1,0,45.4,44.691,1.206,1.206,0,0,0,44.145,43.433Zm0,.589c.327,0,.5.229.5.67s-.172.678-.5.678-.5-.229-.5-.686C43.647,44.258,43.818,44.021,44.145,44.021ZM50,38.013v20H22v-20H50m2-2H20v24H52Z" transform="translate(-16 -32)"/>
</svg>
