<svg xmlns="http://www.w3.org/2000/svg" width="48" height="48" viewBox="0 0 48 48">
  <g id="Group_6092" data-name="Group 6092" transform="translate(-24 -473)">
    <g id="Group_6090" data-name="Group 6090" transform="translate(0 105)">
      <rect id="Rectangle_2703" data-name="Rectangle 2703" width="48" height="48" transform="translate(24 368)" fill="#fff"/>
    </g>
    <path id="device-thermostat-BCC50-72_2_" data-name="device-thermostat-BCC50-72 (2)" d="M29.869,44.638h4.516v1.068a8.564,8.564,0,0,0-2.092,5.517H30.758a8.666,8.666,0,0,1,2.262-5.453H29.869Zm8.762,4.311A3.2,3.2,0,0,0,39.744,46.6a1.974,1.974,0,0,0-2.191-2.063,2.156,2.156,0,0,0-2.281,1.815l1.257.313c.189-.7.476-1,.961-1,.512,0,.808.341.808.912A3.072,3.072,0,0,1,37.1,48.746,12.09,12.09,0,0,1,35.264,50.1v1.124h4.552V50.09H37.1a8.24,8.24,0,0,0,1.536-1.142Zm2.715-4.361a.924.924,0,1,1-.921.909A.882.882,0,0,1,41.346,44.587Zm0,.431c-.239,0-.365.173-.365.484,0,.335.125.5.365.5s.365-.167.365-.5-.125-.49-.365-.49Zm5.438,2.812A10.963,10.963,0,1,0,35.821,58.793,10.976,10.976,0,0,0,46.784,47.83Zm-1.971,0a8.992,8.992,0,1,1-8.992-8.992,9,9,0,0,1,8.992,8.992ZM55.821,58.805V36.854a5.039,5.039,0,0,0-5.033-5.033H20.854a5.039,5.039,0,0,0-5.033,5.033V58.805a5.039,5.039,0,0,0,5.033,5.033H50.788a5.039,5.039,0,0,0,5.033-5.033Zm-5.033-24.9a2.952,2.952,0,0,1,2.949,2.949V58.805a2.952,2.952,0,0,1-2.949,2.949H20.854a2.952,2.952,0,0,1-2.949-2.949V36.854a2.952,2.952,0,0,1,2.949-2.949Z" transform="translate(12.179 449.179)"/>
  </g>
</svg>
