<svg xmlns="http://www.w3.org/2000/svg" width="112.001" height="24.758" viewBox="0 0 112.001 24.758">
  <g id="Group_5534" data-name="Group 5534" transform="translate(11804 2578)">
    <g id="Group_1505" data-name="Group 1505" transform="translate(-11766.628 -2574)">
      <path id="Path_18817" data-name="Path 18817" d="M218.9,143.487v16.519h8.445c2.472,0,5.141-1.757,5.141-4.6a4,4,0,0,0-2.933-3.941c-.067-.021-.08-.025-.08-.054a.037.037,0,0,1,.025-.035,3.587,3.587,0,0,0,2.26-3.372c0-2.832-1.912-4.522-5.115-4.522Zm4.01,6.508v-3.088a.036.036,0,0,1,.036-.036h3.038a1.525,1.525,0,0,1,1.616,1.606,1.589,1.589,0,0,1-1.688,1.556h-2.965A.038.038,0,0,1,222.906,150Zm0,6.593v-3.26a.036.036,0,0,1,.036-.036h2.965c1.413,0,2.223.6,2.223,1.654,0,1.114-.723,1.679-2.151,1.679h-3.038A.037.037,0,0,1,222.906,156.588Z" transform="translate(-218.896 -143.071)" fill="#fff" fill-rule="evenodd"/>
      <path id="Path_18818" data-name="Path 18818" d="M236.447,151.659c0,5.182,3.052,8.664,7.595,8.664s7.594-3.482,7.594-8.664-3.052-8.664-7.595-8.664S236.447,146.476,236.447,151.659Zm4.034,0c0-2.881,1.4-4.743,3.56-4.743,2.178,0,3.585,1.862,3.585,4.743s-1.407,4.766-3.585,4.766C241.845,156.425,240.481,154.6,240.481,151.659Z" transform="translate(-221.615 -142.995)" fill="#fff" fill-rule="evenodd"/>
      <path id="Path_18819" data-name="Path 18819" d="M255.987,148.179c0,2.56,1.682,4.323,4.734,4.964l.583.123c2.247.472,2.994.81,2.994,1.874,0,1-.914,1.679-2.272,1.679a5.258,5.258,0,0,1-4.206-2.116l-2.6,2.547a8.1,8.1,0,0,0,6.851,3.074c3.17,0,6.38-1.848,6.38-5.38,0-3.922-3.127-4.578-5.2-5.012l-.584-.123c-1.293-.272-2.556-.628-2.556-1.7,0-1.092,1.031-1.58,2.053-1.58a4.747,4.747,0,0,1,3.4,1.53l2.526-2.5a7.731,7.731,0,0,0-6-2.561C258.444,142.994,255.987,145.077,255.987,148.179Z" transform="translate(-224.524 -142.995)" fill="#fff" fill-rule="evenodd"/>
      <path id="Path_18820" data-name="Path 18820" d="M272.384,151.565c0,5.159,3.144,8.762,7.644,8.762,3.382,0,4.9-1.251,6.509-3.557l-3.315-2.237a3.209,3.209,0,0,1-3,1.9c-1.82,0-3.779-1.522-3.779-4.864,0-3.049,1.84-4.644,3.658-4.644a3.255,3.255,0,0,1,3.025,1.848l3.292-2.189a7.071,7.071,0,0,0-6.34-3.557C274.763,143.023,272.384,147.314,272.384,151.565Z" transform="translate(-227.182 -143)" fill="#fff" fill-rule="evenodd"/>
      <path id="Path_18821" data-name="Path 18821" d="M300.352,143.487v6.066a.036.036,0,0,1-.036.036h-5.03a.036.036,0,0,1-.036-.036v-6.066h-4.277v16.519h4.277V153.5a.036.036,0,0,1,.036-.036h5.03a.036.036,0,0,1,.036.036v6.507h4.3V143.487Z" transform="translate(-230.061 -143.071)" fill="#fff" fill-rule="evenodd"/>
    </g>
    <path id="Path_18822" data-name="Path 18822" d="M174.751,150.992a12.379,12.379,0,1,0,12.379-12.379A12.393,12.393,0,0,0,174.751,150.992Zm1.566,0A10.813,10.813,0,1,1,187.13,161.8,10.825,10.825,0,0,1,176.317,150.992Zm14.95-7.581v3.815a.061.061,0,0,1-.062.061h-8.151a.061.061,0,0,1-.061-.061v-3.815a.457.457,0,0,0-.456-.456.448.448,0,0,0-.236.067,9.322,9.322,0,0,0,0,15.943.456.456,0,0,0,.693-.39v-3.816a.061.061,0,0,1,.061-.061H191.2a.062.062,0,0,1,.062.061v3.816a.457.457,0,0,0,.456.456.446.446,0,0,0,.236-.067,9.322,9.322,0,0,0,0-15.943.462.462,0,0,0-.237-.067A.457.457,0,0,0,191.267,143.411Zm-10.092,12.195a7.656,7.656,0,0,1,0-9.226l.046-.061-.006.076c-.027.353-.041.672-.041.975v7.246c0,.3.014.622.041.975l.006.076Zm1.819-2.787v-3.652a.062.062,0,0,1,.061-.062H191.2a.062.062,0,0,1,.062.062v3.652a.061.061,0,0,1-.062.061h-8.151A.061.061,0,0,1,182.993,152.818Zm10.052,2.772c.027-.352.04-.671.04-.975v-7.246c0-.3-.013-.623-.04-.975l-.006-.076.046.061a7.656,7.656,0,0,1,0,9.226l-.046.061Z" transform="translate(-11978.686 -2716.613)" fill="#fff"/>
    <g id="Bosch_x005F_L" transform="translate(-11766.664 -2574)">
      <g id="Group_1638" data-name="Group 1638">
        <path id="Path_18933" data-name="Path 18933" d="M228.088,154.938c0-.956-.7-1.618-2.187-1.618h-2.965v3.26h3.038C227.213,156.581,228.088,156.14,228.088,154.938Zm-.535-6.469a1.492,1.492,0,0,0-1.579-1.569h-3.038v3.088H225.9A1.555,1.555,0,0,0,227.553,148.469Zm4.958,6.935c0,2.794-2.576,4.633-5.177,4.633h-8.481V143.444h7.777c2.989,0,5.153,1.495,5.153,4.558a3.6,3.6,0,0,1-2.284,3.407A4.094,4.094,0,0,1,232.511,155.4Z" transform="translate(-218.853 -143.027)" fill="#ed1c24" fill-rule="evenodd"/>
        <path id="Path_18934" data-name="Path 18934" d="M247.583,151.652c0-2.6-1.191-4.705-3.548-4.705s-3.524,2.108-3.524,4.705c0,2.622,1.166,4.73,3.524,4.73S247.583,154.274,247.583,151.652Zm4.083,0c0,4.877-2.8,8.7-7.631,8.7-4.812,0-7.631-3.823-7.631-8.7,0-4.853,2.819-8.7,7.631-8.7C248.871,142.951,251.666,146.8,251.666,151.652Z" transform="translate(-221.572 -142.95)" fill="#ed1c24" fill-rule="evenodd"/>
        <path id="Path_18935" data-name="Path 18935" d="M268.481,154.935c0,3.652-3.305,5.416-6.416,5.416a8.108,8.108,0,0,1-6.9-3.112l2.648-2.6a5.219,5.219,0,0,0,4.2,2.133c1.337,0,2.236-.662,2.236-1.642,0-1.054-.8-1.382-2.965-1.838l-.583-.123c-2.615-.549-4.764-2.034-4.764-5,0-3.26,2.649-5.221,6.148-5.221a7.757,7.757,0,0,1,6.052,2.6l-2.576,2.549a4.743,4.743,0,0,0-3.4-1.544c-.947,0-2.016.441-2.016,1.544,0,1,1.113,1.369,2.527,1.667l.584.123C265.623,150.384,268.481,151.113,268.481,154.935Z" transform="translate(-224.478 -142.95)" fill="#ed1c24" fill-rule="evenodd"/>
        <path id="Path_18936" data-name="Path 18936" d="M286.583,156.754c-1.7,2.451-3.281,3.6-6.56,3.6-4.667,0-7.68-3.872-7.68-8.8,0-4.681,2.722-8.578,7.728-8.578a7.093,7.093,0,0,1,6.391,3.6l-3.354,2.23a3.232,3.232,0,0,0-3.014-1.863c-1.846,0-3.62,1.651-3.62,4.607,0,3.314,1.92,4.828,3.743,4.828a3.192,3.192,0,0,0,2.989-1.912Z" transform="translate(-227.139 -142.955)" fill="#ed1c24" fill-rule="evenodd"/>
        <path id="Path_18937" data-name="Path 18937" d="M304.683,160.037h-4.374v-6.544h-5.03v6.544h-4.351V143.444h4.351v6.1h5.03v-6.1h4.374Z" transform="translate(-230.018 -143.027)" fill="#ed1c24" fill-rule="evenodd"/>
      </g>
    </g>
    <g id="symbol" transform="translate(-11804 -2578)">
      <path id="Path_18792" data-name="Path 18792" d="M12.276.176A12.276,12.276,0,1,0,24.552,12.452,12.276,12.276,0,0,0,12.276.176Zm0,23.406a11.13,11.13,0,1,1,11.13-11.13,11.13,11.13,0,0,1-11.13,11.13Z" transform="translate(0 -0.176)"/>
      <path id="Path_18793" data-name="Path 18793" d="M26.435,18.276H25.59v4.241H17.117V18.276h-.87a9.289,9.289,0,0,0,0,15.472h.87V29.507H25.59v4.241h.845a9.289,9.289,0,0,0,0-15.472Zm-10.5,13.8a8.136,8.136,0,0,1,0-12.131Zm9.65-3.752H17.117V23.673H25.59Zm1.152,3.727v-2.57h0V22.516h0v-2.57a8.158,8.158,0,0,1,0,12.1Z" transform="translate(-9.065 -13.736)"/>
    </g>
  </g>
</svg>
