<svg id="calendar_clock" xmlns="http://www.w3.org/2000/svg" width="24" height="24" viewBox="0 0 24 24">
  <rect id="Icons_Bottom_Navigation_calendar_clock_background" data-name="Icons/Bottom Navigation/calendar_clock background" width="24" height="24" fill="#fff"/>
  <path id="calendar-clock" d="M16.007,19.5A4.041,4.041,0,0,1,12,15.493a4.043,4.043,0,0,1,4.008-4.009,4.044,4.044,0,0,1,4.009,4.009A4.043,4.043,0,0,1,16.007,19.5Zm0-7.008a3,3,0,0,0-2.12,5.121,3,3,0,1,0,4.242-4.242A2.9,2.9,0,0,0,16.007,12.492Zm-4.594,4.992H0V1.5H5.016V0H6V1.5h8.015V0H15V1.5h5.016V12.492c-.15-.18-.311-.357-.481-.527s-.343-.326-.527-.481V6.493h-18V16.5h10.1a3.546,3.546,0,0,0,.129.5c.053.16.111.317.175.479Zm-10.406-15v3h18v-3H15v.891h-.985V2.484H6v.891H5.016V2.484Zm16.5,13.5H15.516V13.5H16.5V15h1.008v.983Z" transform="translate(1.992 3.008)"/>
</svg>
