<svg xmlns="http://www.w3.org/2000/svg" width="24" height="18.462" viewBox="0 0 24 18.462">
  <path id="Contractor_monitor" data-name="Contractor monitor" d="M-4771,1532.462V1514h24v18.462Zm1.384-1.384h21.231v-11.771h-21.231Zm0-13.155h21.231v-2.538h-21.231Zm6.286,11.737-1.29-3.565h-1.658v-1.341h2.183a.727.727,0,0,1,.691.459l.765,2.115,2.221-6.138a.724.724,0,0,1,.689-.457.725.725,0,0,1,.691.457l1.493,4.126.765-2.115a.728.728,0,0,1,.691-.458.728.728,0,0,1,.691.458l.562,1.553h3.114v1.341h-3.639a.725.725,0,0,1-.691-.459l-.037-.1-.765,2.116a.727.727,0,0,1-.691.459.728.728,0,0,1-.691-.459l-1.493-4.126-2.22,6.136a.726.726,0,0,1-.691.459A.726.726,0,0,1-4763.33,1529.659Zm11.716-12.558v-.859h.983v.859Zm-1.872,0v-.859h.947v.859Z" transform="translate(4771 -1514)"/>
</svg>
