<svg xmlns="http://www.w3.org/2000/svg" width="24" height="21.432" viewBox="0 0 24 21.432">
  <path id="ice_cool" data-name="ice/cool" d="M40,35.875H36.234l1.887,3.3-1.042.6-2.227-3.9H29.039l2.906,5.034,4.489-.02.005,1.2-3.8.017,1.883,3.261-1.039.6L31.6,42.706l-1.916,3.285-1.037-.6,2.262-3.878L28,36.475l-2.906,5.034,2.262,3.878-1.036.6L24.4,42.706,22.52,45.967l-1.039-.6,1.883-3.261-3.8-.017.005-1.2,4.489.02,2.906-5.034H21.148l-2.227,3.9-1.042-.6,1.887-3.3H16v-1.2h3.766l-1.887-3.3,1.042-.6,2.227,3.9h5.813l-2.906-5.034-4.489.02-.005-1.2,3.8-.017L21.48,25.183l1.039-.6L24.4,27.844l1.916-3.285,1.037.6-2.262,3.878L28,34.075l2.906-5.034-2.262-3.878,1.037-.6L31.6,27.844l1.883-3.261,1.039.6-1.883,3.261,3.8.017-.005,1.2-4.489-.02-2.906,5.034h5.813l2.227-3.9,1.042.6-1.887,3.3H40Z" transform="translate(-16 -24.559)" fill="#1a1a18"/>
</svg>
