<svg xmlns="http://www.w3.org/2000/svg" width="16" height="20" viewBox="0 0 16 20">
  <path id="core-data" d="M48,18c0-.7-.826-1.2-2.6-1.551A28.927,28.927,0,0,0,40,16a28.928,28.928,0,0,0-5.4.449C32.826,16.8,32,17.3,32,18V34c0,.7.826,1.2,2.6,1.551A28.927,28.927,0,0,0,40,36a28.928,28.928,0,0,0,5.4-.449C47.174,35.2,48,34.7,48,34Zm-1,3.945c-.315.37-2.68,1.055-7,1.055s-6.685-.686-7-1.055V19.091a8.114,8.114,0,0,0,1.6.46A28.9,28.9,0,0,0,40,20a28.928,28.928,0,0,0,5.4-.449,8.14,8.14,0,0,0,1.6-.46v2.854Zm0,4c-.315.37-2.68,1.055-7,1.055s-6.685-.686-7-1.055V23.091a8.114,8.114,0,0,0,1.6.46A28.9,28.9,0,0,0,40,24a28.928,28.928,0,0,0,5.4-.449,8.14,8.14,0,0,0,1.6-.46v2.854Zm0,4c-.315.37-2.68,1.055-7,1.055s-6.685-.686-7-1.055V27.091a8.114,8.114,0,0,0,1.6.46A28.9,28.9,0,0,0,40,28a28.928,28.928,0,0,0,5.4-.449,8.14,8.14,0,0,0,1.6-.46v2.854ZM40,17c4.112,0,6.453.621,6.941,1-.488.379-2.83,1-6.941,1s-6.453-.621-6.942-1C33.547,17.621,35.888,17,40,17Zm0,18c-4.313,0-6.679-.684-7-1.054V31.091a8.14,8.14,0,0,0,1.6.46A28.927,28.927,0,0,0,40,32a28.928,28.928,0,0,0,5.4-.449,8.14,8.14,0,0,0,1.6-.46v2.855C46.679,34.316,44.313,35,40,35Z" transform="translate(-32 -16)" fill="#004975"/>
</svg>
