<svg xmlns="http://www.w3.org/2000/svg" width="24" height="24" viewBox="0 0 24 24">
  <g id="Group_6100" data-name="Group 6100" transform="translate(1757 -4947)">
    <g id="Group_6099" data-name="Group 6099" transform="translate(0 35)">
      <g id="Group_6097" data-name="Group 6097" transform="translate(-1797 4688)">
        <rect id="Rectangle_2785" data-name="Rectangle 2785" width="24" height="24" transform="translate(40 224)" fill="#fff"/>
      </g>
    </g>
    <path id="hot" d="M50.966,41.17l-.759-.949.38.475-.38-.474a8.052,8.052,0,0,0,2.812-5.6,9.2,9.2,0,0,0-1.737-5.157,10.324,10.324,0,0,1-1.91-5.783A9.852,9.852,0,0,1,51.98,17.17l.86.86a8.765,8.765,0,0,0-2.253,5.648,9.2,9.2,0,0,0,1.737,5.157,10.324,10.324,0,0,1,1.91,5.783A9.153,9.153,0,0,1,50.966,41.17Zm-3.419-6.552a10.324,10.324,0,0,0-1.91-5.783A9.2,9.2,0,0,1,43.9,23.678a8.765,8.765,0,0,1,2.253-5.648l-.86-.86a9.855,9.855,0,0,0-2.609,6.508A10.324,10.324,0,0,0,44.6,29.46a9.2,9.2,0,0,1,1.737,5.157,8.053,8.053,0,0,1-2.812,5.6l.38.474-.38-.475.759.949A9.153,9.153,0,0,0,47.548,34.618Zm-6.685,0a10.324,10.324,0,0,0-1.91-5.783,9.2,9.2,0,0,1-1.737-5.157,8.765,8.765,0,0,1,2.253-5.648l-.86-.86A9.855,9.855,0,0,0,36,23.678a10.324,10.324,0,0,0,1.91,5.783,9.2,9.2,0,0,1,1.737,5.157,8.053,8.053,0,0,1-2.812,5.6l.38.474-.38-.475.759.949A9.153,9.153,0,0,0,40.862,34.618Z" transform="translate(-1790 4929.83)"/>
  </g>
</svg>
