<?xml version="1.0" standalone="no"?>
<!DOCTYPE svg PUBLIC "-//W3C//DTD SVG 20010904//EN"
 "http://www.w3.org/TR/2001/REC-SVG-20010904/DTD/svg10.dtd">
<svg version="1.0" xmlns="http://www.w3.org/2000/svg"
 width="120.000000pt" height="120.000000pt" viewBox="0 0 120.000000 120.000000"
 preserveAspectRatio="xMidYMid meet">

<g transform="translate(0.000000,120.000000) scale(0.100000,-0.100000)"
fill="#000000" stroke="none">
<path d="M491 1189 c-212 -37 -397 -203 -463 -414 -29 -91 -31 -251 -4 -340
57 -192 211 -348 401 -408 98 -30 252 -30 350 0 190 60 344 216 401 408 25 82
25 248 0 330 -29 96 -76 175 -151 251 -79 80 -134 115 -234 150 -80 28 -216
38 -300 23z m242 -64 c98 -25 176 -72 252 -149 168 -170 204 -410 94 -629 -39
-78 -153 -192 -229 -229 -156 -77 -344 -77 -500 0 -74 36 -197 160 -232 234
-58 119 -74 262 -43 383 48 184 202 340 388 390 69 18 199 19 270 0z"/>
<path d="M681 635 l-164 -156 -26 23 c-14 12 -51 46 -82 76 l-55 53 -19 -21
c-19 -21 -19 -22 80 -114 l100 -94 65 61 c303 285 310 294 291 311 -9 9 -20
16 -22 16 -2 0 -78 -70 -168 -155z"/>
</g>
</svg>
