<svg xmlns="http://www.w3.org/2000/svg" width="76" height="60.8" viewBox="0 0 76 60.8">
  <path id="device-thermostat-BCC100-72_COLOR" data-name="device-thermostat-BCC100-72 COLOR" d="M82.5,35.8a5.706,5.706,0,0,1,5.7,5.7V83.3A5.706,5.706,0,0,1,82.5,89h-57a5.706,5.706,0,0,1-5.7-5.7V41.5a5.706,5.706,0,0,1,5.7-5.7h57m0-3.8h-57A9.5,9.5,0,0,0,16,41.5V83.3a9.5,9.5,0,0,0,9.5,9.5h57A9.5,9.5,0,0,0,92,83.3V41.5A9.5,9.5,0,0,0,82.5,32ZM41.985,70.95A22.5,22.5,0,0,1,47.859,56.8H39.678V53.854H51.4v2.774c-3.263,3.466-5.291,8.87-5.431,14.322Zm11.7-2.917a31.352,31.352,0,0,0,4.779-3.515c2.051-1.889,3.1-3.778,3.1-5.619,0-1.482-.77-2.367-2.1-2.367-1.259,0-2,.765-2.494,2.583L53.708,58.3c.862-3.18,2.75-4.711,5.92-4.711,3.52,0,5.687,2.057,5.687,5.356a8.3,8.3,0,0,1-2.89,6.1,21.329,21.329,0,0,1-3.986,2.965H65.5V70.95H53.684ZM69.476,53.722a2.4,2.4,0,1,0,2.39,2.391A2.291,2.291,0,0,0,69.476,53.722Zm0,1.118c.621,0,.947.434.947,1.273S70.1,57.4,69.476,57.4s-.947-.434-.947-1.3C68.529,55.29,68.855,54.84,69.476,54.84ZM80.6,43.425v38H27.4v-38H80.6m3.8-3.8H23.6v45.6H84.4Z" transform="translate(-16 -32)" fill="#00a8af"/>
</svg>
