<svg xmlns="http://www.w3.org/2000/svg" width="24" height="19.2" viewBox="0 0 24 19.2">
  <path id="device-thermostat-BCC100-72" d="M37,33.2A1.8,1.8,0,0,1,38.8,35V48.2A1.8,1.8,0,0,1,37,50H19a1.8,1.8,0,0,1-1.8-1.8V35A1.8,1.8,0,0,1,19,33.2H37M37,32H19a3,3,0,0,0-3,3V48.2a3,3,0,0,0,3,3H37a3,3,0,0,0,3-3V35A3,3,0,0,0,37,32ZM24.206,44.3a7.1,7.1,0,0,1,1.855-4.47H23.477V38.9h3.7v.876A7.018,7.018,0,0,0,25.465,44.3Zm3.694-.921a9.9,9.9,0,0,0,1.509-1.11,2.518,2.518,0,0,0,.979-1.775c0-.468-.243-.747-.663-.747-.4,0-.633.241-.787.816l-1.031-.257a1.767,1.767,0,0,1,1.87-1.488,1.619,1.619,0,0,1,1.8,1.691,2.623,2.623,0,0,1-.913,1.925,6.736,6.736,0,0,1-1.259.936h2.23V44.3H27.9Zm4.987-4.519a.757.757,0,1,0,.755.755A.724.724,0,0,0,32.887,38.86Zm0,.353c.2,0,.3.137.3.4s-.1.407-.3.407-.3-.137-.3-.412C32.588,39.355,32.691,39.213,32.887,39.213Zm3.513-3.6v12H19.6v-12H36.4m1.2-1.2H18.4v14.4H37.6Z" transform="translate(-16 -32)"/>
</svg>
