<svg xmlns="http://www.w3.org/2000/svg" width="24" height="19.211" viewBox="0 0 24 19.211">
  <path id="device-thermostat-BCC50-72_2_" data-name="device-thermostat-BCC50-72 (2)" d="M24.25,39.511h2.71v.641a5.138,5.138,0,0,0-1.255,3.31h-.921a5.2,5.2,0,0,1,1.357-3.272H24.25ZM29.507,42.1a1.92,1.92,0,0,0,.668-1.409A1.185,1.185,0,0,0,28.86,39.45a1.294,1.294,0,0,0-1.368,1.089l.754.188c.113-.42.286-.6.576-.6.307,0,.485.2.485.547a1.843,1.843,0,0,1-.716,1.3,7.254,7.254,0,0,1-1.1.812v.674h2.731v-.68H28.586a4.944,4.944,0,0,0,.921-.685Zm1.629-2.617a.554.554,0,1,1-.553.545A.529.529,0,0,1,31.136,39.481Zm0,.258c-.144,0-.219.1-.219.291s.075.3.219.3.219-.1.219-.3-.075-.294-.219-.294ZM34.4,41.426A6.578,6.578,0,1,0,27.821,48,6.585,6.585,0,0,0,34.4,41.426Zm-1.183,0a5.4,5.4,0,1,1-5.4-5.4,5.4,5.4,0,0,1,5.4,5.4Zm6.6,6.585V34.841a3.024,3.024,0,0,0-3.02-3.02H18.841a3.024,3.024,0,0,0-3.02,3.02V48.012a3.024,3.024,0,0,0,3.02,3.02H36.8a3.024,3.024,0,0,0,3.02-3.02ZM36.8,33.072a1.771,1.771,0,0,1,1.769,1.769V48.012A1.771,1.771,0,0,1,36.8,49.781H18.841a1.771,1.771,0,0,1-1.769-1.769V34.841a1.771,1.771,0,0,1,1.769-1.769Z" transform="translate(-15.821 -31.821)"/>
</svg>
