<svg xmlns="http://www.w3.org/2000/svg" width="24" height="24" viewBox="0 0 24 24">
  <g id="Group_6067" data-name="Group 6067" transform="translate(-4546 -5226)">
    <rect id="Rectangle_2782" data-name="Rectangle 2782" width="24" height="24" transform="translate(4546 5226)" fill="#fff"/>
    <g id="Group_5005" data-name="Group 5005" transform="translate(8538 -3488)">
      <path id="Subtraction_2" data-name="Subtraction 2" d="M10.184,9.6h-1.3V6.686L6.718,8.531l-.842-.99,3.01-2.562V.337L4.662,2.819l.017,3.854-1.3.006-.014-3.1L.76,5.111.1,3.991,2.716,2.454,0,.885.512,0h.555L4,1.7,6.892,0h3.293V9.6Zm3.341-.373h0L12.339,6.391l1.2-.5,1.186,2.836-1.2.5ZM11.484,5h0V3.653A4.557,4.557,0,0,0,14.648,0h1.313A5.826,5.826,0,0,1,14.51,3.2,5.9,5.9,0,0,1,11.485,5Zm8.121-1.1h0L16.672,2.7l.494-1.2L20.1,2.7l-.493,1.2Z" transform="translate(-3990 8728.4)"/>
      <path id="Subtraction_1" data-name="Subtraction 1" d="M1.1,13.6H0A16.023,16.023,0,0,1,2.564,7.027l0,0c1.182-2.034,2.3-3.956,2.3-6.476V0h.547C7.636,0,8.319,2.414,9.043,4.969l.006.022a25.566,25.566,0,0,0,.966,2.951L11.58,6.9l.3.455A15.086,15.086,0,0,1,14.1,13.6h-1.1a14.562,14.562,0,0,0-1.733-5.173L9.574,9.552,9.3,9A21.461,21.461,0,0,1,7.99,5.268C7.364,3.057,6.883,1.579,5.935,1.193A14.5,14.5,0,0,1,3.51,7.577,15.375,15.375,0,0,0,1.1,13.6Zm3.835,0H3.758a9.608,9.608,0,0,1,2.36-3.593l.723-.723.2,1A9.151,9.151,0,0,0,8.847,13.6H7.5a10.934,10.934,0,0,1-1.239-2.136A8.157,8.157,0,0,0,4.937,13.6Z" transform="translate(-3986.913 8714)"/>
    </g>
  </g>
</svg>
