<svg xmlns="http://www.w3.org/2000/svg" width="25.307" height="17.997" viewBox="0 0 25.307 17.997">
  <path id="edit" d="M16,58.25h6.288v1.258H16ZM40.342,47.144l-.445.445,0,0L29.526,57.953,23.31,59.507l1.554-6.216L35.673,42.475a3.3,3.3,0,0,1,4.668,4.669ZM29.2,56.5l8.544-8.544-2.877-2.89-8.55,8.55L29.2,56.5Zm-4.166,1.283,2.936-.734-2.2-2.2-.734,2.936ZM39.452,43.364a2.046,2.046,0,0,0-2.789-.095l-.9.9,2.877,2.89.91-.91A2.046,2.046,0,0,0,39.452,43.364Z" transform="translate(-16 -41.51)" fill="#004975"/>
</svg>
