<svg xmlns="http://www.w3.org/2000/svg" width="24" height="23.894" viewBox="0 0 24 23.894">
  <path id="fan-arrows" d="M25.781,38.86l-.246,1.174a12.012,12.012,0,0,1-9.29-14.2,11.223,11.223,0,0,1,6.216-7.894l-2.025-.423.246-1.175,4.111.859-.859,4.111-1.174-.246.45-2.155A10.09,10.09,0,0,0,17.42,26.08,10.811,10.811,0,0,0,25.781,38.86Zm4.665-22.315L30.2,17.72A10.811,10.811,0,0,1,38.561,30.5a10.09,10.09,0,0,1-5.789,7.168l.45-2.155-1.174-.246-.859,4.111,4.111.859.246-1.174-2.025-.424a11.223,11.223,0,0,0,6.216-7.894,12.013,12.013,0,0,0-9.29-14.2Zm-1.6,13.986a2.369,2.369,0,0,1-1.752-.019,13.114,13.114,0,0,1-5.242,3.706l-.4.154-.275-.332a8.974,8.974,0,0,1-1.543-2.714l-.14-.393.319-.268a12.731,12.731,0,0,1,5.82-2.765,2.4,2.4,0,0,1,.863-1.48,13.047,13.047,0,0,1-.734-4.323A11.563,11.563,0,0,1,26,19.9l.079-.407.409-.07a8.764,8.764,0,0,1,3.032.005l.412.072.075.411a12.048,12.048,0,0,1,.219,2.188,12.762,12.762,0,0,1-.75,4.313,2.4,2.4,0,0,1,.879,1.49,12.733,12.733,0,0,1,5.82,2.765l.319.268-.14.393a8.971,8.971,0,0,1-1.572,2.747l-.273.327-.4-.15a12.846,12.846,0,0,1-5.271-3.72Zm6.231.785A11.527,11.527,0,0,0,30.246,29.1a2.4,2.4,0,0,1-.423.735,11.659,11.659,0,0,0,4.306,3.132,7.758,7.758,0,0,0,.943-1.651Zm-7.486-5.389a2.223,2.223,0,0,1,.789,0,11.566,11.566,0,0,0,.651-3.826,10.107,10.107,0,0,0-.129-1.552,7.461,7.461,0,0,0-1.794,0,9.28,9.28,0,0,0-.15,1.554,11.855,11.855,0,0,0,.632,3.829ZM26.124,29.8a2.4,2.4,0,0,1-.39-.695,11.527,11.527,0,0,0-4.826,2.216,7.759,7.759,0,0,0,.917,1.616A11.931,11.931,0,0,0,26.124,29.8Zm1.866-.306a1.2,1.2,0,1,0-1.2-1.2A1.2,1.2,0,0,0,27.991,29.49Z" transform="translate(-15.991 -16.343)"/>
</svg>
