<svg xmlns="http://www.w3.org/2000/svg" width="24" height="24" viewBox="0 0 24 24">
  <path id="fan-frame" d="M36.186,30.377a12.734,12.734,0,0,0-5.821-2.765,2.4,2.4,0,0,0-.879-1.491,12.762,12.762,0,0,0,.75-4.312,12.03,12.03,0,0,0-.219-2.188l-.075-.411-.412-.072a8.766,8.766,0,0,0-3.032-.005l-.409.07-.079.407a11.582,11.582,0,0,0-.248,2.2,13.048,13.048,0,0,0,.734,4.324,2.4,2.4,0,0,0-.863,1.48,12.729,12.729,0,0,0-5.821,2.765l-.319.268.14.393a8.975,8.975,0,0,0,1.544,2.714l.275.332.4-.154A13.115,13.115,0,0,0,27.1,30.223a2.37,2.37,0,0,0,1.752.019,12.847,12.847,0,0,0,5.271,3.72l.4.15.273-.327a8.973,8.973,0,0,0,1.572-2.748l.14-.393-.319-.268Zm-9.222-8.569a9.291,9.291,0,0,1,.15-1.554,7.463,7.463,0,0,1,1.795,0,10.1,10.1,0,0,1,.129,1.552,11.569,11.569,0,0,1-.651,3.828,2.17,2.17,0,0,0-.789,0,11.856,11.856,0,0,1-.633-3.829ZM21.834,32.644a7.76,7.76,0,0,1-.917-1.616,11.523,11.523,0,0,1,4.827-2.216,2.4,2.4,0,0,0,.39.695A11.93,11.93,0,0,1,21.834,32.644ZM26.8,28A1.2,1.2,0,1,1,28,29.2,1.2,1.2,0,0,1,26.8,28Zm7.339,4.678a11.661,11.661,0,0,1-4.306-3.132,2.4,2.4,0,0,0,.423-.735,11.529,11.529,0,0,1,4.827,2.216A7.762,7.762,0,0,1,34.139,32.678ZM28,40A12,12,0,1,1,40,28,12.014,12.014,0,0,1,28,40Zm0-22.8A10.8,10.8,0,1,0,38.8,28,10.812,10.812,0,0,0,28,17.2Z" transform="translate(-16 -16.001)"/>
</svg>
