<svg xmlns="http://www.w3.org/2000/svg" width="24" height="21.059" viewBox="0 0 24 21.059">
  <path id="fan" d="M28.655,28.242a18.268,18.268,0,0,0-8.532,3.931l-.34.282.15.416a12.541,12.541,0,0,0,2.189,3.8l.287.343.419-.159a18.687,18.687,0,0,0,7.633-5.41,3.12,3.12,0,0,0,2.579.032A18.3,18.3,0,0,0,40.7,36.905l.415.154.285-.338a12.537,12.537,0,0,0,2.229-3.851l.15-.416-.34-.282A18.267,18.267,0,0,0,34.91,28.24a3.147,3.147,0,0,0-1.28-2.189,17.885,17.885,0,0,0,1.144-6.273,16.762,16.762,0,0,0-.312-3.083l-.08-.431-.432-.075a12.492,12.492,0,0,0-4.293-.008l-.429.073-.083.427a16.131,16.131,0,0,0-.354,3.1,18.281,18.281,0,0,0,1.12,6.291A3.146,3.146,0,0,0,28.655,28.242ZM22.8,35.515a11.271,11.271,0,0,1-1.528-2.656,17.024,17.024,0,0,1,7.491-3.36,3.144,3.144,0,0,0,.679,1.2A17.441,17.441,0,0,1,22.8,35.515Zm17.918.048a17.061,17.061,0,0,1-6.653-4.809A3.146,3.146,0,0,0,34.8,29.5a17.021,17.021,0,0,1,7.49,3.361,11.268,11.268,0,0,1-1.566,2.7ZM30.051,19.779a13.711,13.711,0,0,1,.248-2.42,11.18,11.18,0,0,1,3,0,14.717,14.717,0,0,1,.215,2.415,16.639,16.639,0,0,1-1.032,5.749,3.052,3.052,0,0,0-1.428.007,17.039,17.039,0,0,1-1-5.756Zm1.732,6.928A1.889,1.889,0,1,1,29.894,28.6,1.891,1.891,0,0,1,31.783,26.706Z" transform="translate(-19.783 -16)"/>
</svg>
