<svg xmlns="http://www.w3.org/2000/svg" width="13" height="20" viewBox="0 0 13 20">
  <path id="fire" d="M54.916,22.723l-.277-.416-1.429.953a23.43,23.43,0,0,1-.889-2.717C51.659,18.206,51.034,16,49,16h-.5v.5c0,2.306-1.021,4.063-2.1,5.923C45.219,24.452,44,26.55,44,29.5a6.5,6.5,0,0,0,13,0A13.533,13.533,0,0,0,54.916,22.723ZM48,31.5a7.344,7.344,0,0,1,1.778-5.021,12.484,12.484,0,0,0,1.558,2.544C52.192,30.2,53,31.312,53,32.5A2.5,2.5,0,0,1,50.5,35C49.028,35,48,33.561,48,31.5Zm5.577,2.667A3.479,3.479,0,0,0,54,32.5c0-1.513-.943-2.81-1.855-4.065A8.374,8.374,0,0,1,50.49,25.4l-.183-.916-.661.661A8.379,8.379,0,0,0,47,31.5a5.555,5.555,0,0,0,.695,2.825A5.279,5.279,0,0,1,45,29.5c0-2.681,1.15-4.66,2.263-6.575a13.238,13.238,0,0,0,2.217-5.835c.86.35,1.3,1.7,1.879,3.724a19.6,19.6,0,0,0,1.194,3.409l.253.507L54.348,23.7A12.7,12.7,0,0,1,56,29.5,5.313,5.313,0,0,1,53.577,34.167Z" transform="translate(-44 -16)"/>
</svg>
