<svg xmlns="http://www.w3.org/2000/svg" width="24" height="24" viewBox="0 0 24 24">
  <g id="Group_6070" data-name="Group 6070" transform="translate(-4545 -5126)">
    <rect id="Rectangle_2780" data-name="Rectangle 2780" width="24" height="24" transform="translate(4545 5126)" fill="#fff"/>
    <path id="fire" d="M57.1,24.067l-.333-.5-1.715,1.143a28.114,28.114,0,0,1-1.067-3.261C53.19,18.648,52.44,16,50,16h-.6v.6c0,2.767-1.225,4.875-2.522,7.107C45.463,26.142,44,28.66,44,32.2A7.544,7.544,0,0,0,51.8,40a7.544,7.544,0,0,0,7.8-7.8A16.24,16.24,0,0,0,57.1,24.067ZM48.8,34.6a8.812,8.812,0,0,1,2.134-6.026,14.981,14.981,0,0,0,1.87,3.053c1.027,1.413,2,2.747,2,4.173a3,3,0,0,1-3,3C50.034,38.8,48.8,37.073,48.8,34.6Zm6.692,3.2a4.174,4.174,0,0,0,.508-2c0-1.815-1.131-3.372-2.226-4.878a10.049,10.049,0,0,1-1.986-3.64l-.22-1.1-.793.793A10.055,10.055,0,0,0,47.6,34.6a6.666,6.666,0,0,0,.834,3.39A6.335,6.335,0,0,1,45.2,32.2c0-3.217,1.38-5.592,2.715-7.89,1.217-2.095,2.472-4.255,2.661-7,1.032.42,1.565,2.036,2.254,4.469a23.525,23.525,0,0,0,1.433,4.091l.3.608,1.85-1.233A15.24,15.24,0,0,1,58.4,32.2,6.375,6.375,0,0,1,55.492,37.8Z" transform="translate(4505 5110)"/>
  </g>
</svg>
