<svg xmlns="http://www.w3.org/2000/svg" width="48" height="48" viewBox="0 0 48 48">
  <g id="Heat_Pump" data-name="Heat Pump" transform="translate(7880 12876)">
    <rect id="Rectangle_2774" data-name="Rectangle 2774" width="48" height="48" transform="translate(-7880 -12876)" fill="#fff"/>
    <path id="device-IDS" d="M59.466,29.967v29.5h-29.5v-29.5h29.5M61.433,28H28V61.433H61.433ZM33.9,32.179H31.933V37.1H33.9Zm3.933,0H35.867V37.1h1.967Zm3.933,0H39.8V37.1h1.967Zm3.933,0H43.733V37.1H45.7Zm3.933,0H47.667V37.1h1.967Zm3.933,0H51.6V37.1h1.967Zm3.933,0H55.533V37.1H57.5ZM33.9,39.062H31.933v4.917H33.9Zm3.933,0H35.867v4.917h1.967Zm15.733,0H51.6v4.917h1.967Zm3.933,0H55.533v4.917H57.5ZM33.9,45.946H31.933v4.917H33.9Zm3.933,0H35.867v4.917h1.967Zm3.933,0H39.8v4.917h1.967Zm3.933,0H43.733v4.917H45.7Zm3.933,0H47.667v4.917h1.967Zm3.933,0H51.6v4.917h1.967Zm3.933,0H55.533v4.917H57.5ZM33.9,52.829H31.933v4.917H33.9Zm3.933,0H35.867v4.917h1.967Zm3.933,0H39.8v4.917h1.967Zm3.933,0H43.733v4.917H45.7Zm3.933,0H47.667v4.917h1.967Zm3.933,0H51.6v4.917h1.967Zm3.933,0H55.533v4.917H57.5ZM41.275,40.292a1.475,1.475,0,1,0,1.475,1.475A1.475,1.475,0,0,0,41.275,40.292Zm8.358.492h-5.9V42.75h5.9Z" transform="translate(-7900.734 -12896.734)"/>
  </g>
</svg>
