<svg xmlns="http://www.w3.org/2000/svg" width="48" height="48" viewBox="0 0 48 48">
  <g id="Heat_Pump_IDS_3" data-name="Heat Pump IDS 3" transform="translate(-7621 3327)">
    <rect id="Rectangle_2774" data-name="Rectangle 2774" width="48" height="48" transform="translate(7621 -3327)" fill="#fff"/>
    <g id="Group_6310" data-name="Group 6310">
      <path id="Path_19531" data-name="Path 19531" d="M20.734,29.281V24.344h2v4.937Zm-4,0V24.344h2v4.937Zm-4,0V24.344h2v4.937Zm-4,0V24.344h2v4.937Zm-4,0V24.344h2v4.937Zm16-6V18.344h2v4.937Zm-4,0V18.344h2v4.937Zm-4,0V18.344h2v4.937Zm-4,0V18.344h2v4.937Zm-4,0V18.344h2v4.937Zm16-6V12.344h2v4.937Zm-4,0V12.344h2v4.937Zm-4,0V12.344h2v4.937Zm-4,0V12.344h2v4.937Zm-4,0V12.344h2v4.937Zm-1-7.137v-2h19.7v2Zm5-5a1.5,1.5,0,1,1,1.5,1.5A1.5,1.5,0,0,1,8.734,5.144Zm4,1v-2h6v2Z" transform="translate(7631 -3320)"/>
      <path id="Rectangle_2864" data-name="Rectangle 2864" d="M3,2A1,1,0,0,0,2,3V30.5a1,1,0,0,0,1,1H24.5a1,1,0,0,0,1-1V3a1,1,0,0,0-1-1H3M3,0H24.5a3,3,0,0,1,3,3V30.5a3,3,0,0,1-3,3H3a3,3,0,0,1-3-3V3A3,3,0,0,1,3,0Z" transform="translate(7631 -3320)"/>
    </g>
  </g>
</svg>
