<svg xmlns="http://www.w3.org/2000/svg" width="24" height="24" viewBox="0 0 24 24">
  <g id="Group_6096" data-name="Group 6096" transform="translate(-40 -224)">
    <rect id="Rectangle_2785" data-name="Rectangle 2785" width="24" height="24" transform="translate(40 224)" fill="#fff"/>
    <g id="Group_6094" data-name="Group 6094" transform="translate(-1182 -4967.046)">
      <path id="drop-ice" d="M48.95,18.939l-.414-.382-.414.382C47.791,19.245,40,26.523,40,34.021a8.536,8.536,0,0,0,17.073,0C57.073,26.523,49.282,19.245,48.95,18.939Zm-.414,22.4a7.325,7.325,0,0,1-7.317-7.317c0-6.014,5.713-12.173,7.317-13.782,1.6,1.609,7.317,7.761,7.317,13.782A7.325,7.325,0,0,1,48.536,41.338Z" transform="translate(1185 5172.489)"/>
    </g>
  </g>
</svg>
