<svg xmlns="http://www.w3.org/2000/svg" width="20" height="17.86" viewBox="0 0 20 17.86">
  <path id="ice" d="M36,33.989H32.862l1.572,2.752-.868.5L31.71,33.989H26.866l2.422,4.195,3.741-.017,0,1-3.17.014L31.433,41.9l-.866.5L29,39.681l-1.6,2.738-.864-.5,1.885-3.232L26,34.489l-2.422,4.195,1.885,3.231-.864.5L23,39.681,21.433,42.4l-.866-.5,1.569-2.718-3.169-.014,0-1,3.741.017,2.422-4.195H20.29l-1.856,3.248-.868-.5,1.573-2.752H16v-1h3.138l-1.573-2.752.868-.5,1.856,3.248h4.844l-2.422-4.195-3.741.017,0-1,3.169-.014-1.569-2.718.866-.5L23,27.3l1.6-2.737.864.5-1.885,3.231L26,32.489l2.422-4.195-1.885-3.231.864-.5L29,27.3l1.569-2.718.866.5L29.864,27.8l3.17.014,0,1-3.741-.017-2.422,4.195H31.71l1.856-3.248.868.5-1.572,2.752H36Z" transform="translate(-16 -24.559)" fill="#1a1a18"/>
</svg>
