<svg xmlns="http://www.w3.org/2000/svg" width="20" height="16.523" viewBox="0 0 20 16.523">
  <path id="keypad" d="M19.505,35.505H16V32h3.505Zm-2.5-1h1.5V33H17Zm7.01,1H20.507V32h3.505Zm-2.5-1h1.5V33h-1.5Zm7.01,1H25.013V32h3.505Zm-2.5-1h1.5V33h-1.5Zm-6.51,5.508H16V36.507h3.505Zm-2.5-1h1.5v-1.5H17Zm7.01,1H20.507V36.507h3.505Zm-2.5-1h1.5v-1.5h-1.5Zm-2,5.508H16V41.013h3.505Zm-2.5-1h1.5v-1.5H17Zm7.01,1H20.507V41.013h3.505Zm-2.5-1h1.5v-1.5h-1.5Zm4.507-1.5h.5v-1h-1.5v2h1ZM36,48.249l-.313-.951a4.532,4.532,0,0,1-2.931-.038l-5.8-2.242a.8.8,0,0,1-.005-.489.76.76,0,0,1,.819-.395c.415.034,2.29.313,3.223.455l.251.038.55-.55-5.665-5.665a.5.5,0,0,1,.708-.708l3.541,3.541.708-.708a1,1,0,0,1,.252-1.6L34.2,37.51a1,1,0,0,1,1.031.1l.6-.8a2,2,0,0,0-2.071-.2l-2.867,1.433a2.01,2.01,0,0,0-1.028,1.267L27.549,37a1.5,1.5,0,0,0-2.124,2.124l4.26,4.26c-.745-.109-1.551-.222-1.83-.245a1.728,1.728,0,0,0-1.836,1.037,1.906,1.906,0,0,0,.114,1.467l.088.165L32.406,48.2A5.544,5.544,0,0,0,36,48.249Z" transform="translate(-16 -32)"/>
</svg>
