<svg xmlns="http://www.w3.org/2000/svg" width="69.365" height="76" viewBox="0 0 69.365 76">
  <path id="link-connected_1_" data-name="link-connected (1)" d="M71.562,71.89c.57,0,1.135-.029,1.7-.076a15.634,15.634,0,0,1-2.274,2.9L58.255,87.44a15.626,15.626,0,1,1-22.1-22.1L48.885,52.614a15.627,15.627,0,0,1,25.786,5.853,7.134,7.134,0,0,1-3.109.713,7.308,7.308,0,0,1-1.2-.106,11.395,11.395,0,0,0-18.477-3.463L39.153,68.339A11.388,11.388,0,0,0,55.258,84.445L67.987,71.715c.042-.041.078-.086.118-.128a20.132,20.132,0,0,0,3.458.3ZM95.34,28.257a15.644,15.644,0,0,0-22.1,0L60.514,40.985a15.631,15.631,0,0,0-2.286,2.9q.851-.074,1.707-.077a20.135,20.135,0,0,1,3.459.3c.041-.041.076-.087.117-.128L76.239,31.253a11.388,11.388,0,1,1,16.1,16.1L79.615,60.087a11.385,11.385,0,0,1-18.473-3.462,7.254,7.254,0,0,0-1.208-.108,7.134,7.134,0,0,0-3.1.711,15.63,15.63,0,0,0,25.781,5.855L95.34,50.355A15.644,15.644,0,0,0,95.34,28.257ZM42.53,33.579a2.119,2.119,0,1,0,3,0,2.119,2.119,0,0,0-3,0ZM54.515,24.59l3-3a19.091,19.091,0,0,0-26.967,0l3,3a14.847,14.847,0,0,1,20.974,0Zm-3,3a10.593,10.593,0,0,0-14.981,0l3,3a6.355,6.355,0,0,1,8.989,0Z" transform="translate(-30.544 -16.017)" fill="#00a8af"/>
</svg>
