<svg xmlns="http://www.w3.org/2000/svg" width="21.905" height="24" viewBox="0 0 21.905 24">
  <path id="link-connected_1_" data-name="link-connected (1)" d="M43.5,33.661c.18,0,.358-.009.535-.024a4.937,4.937,0,0,1-.718.915l-4.02,4.019a4.934,4.934,0,1,1-6.978-6.978l4.02-4.019a4.935,4.935,0,0,1,8.143,1.848,2.253,2.253,0,0,1-.982.225,2.307,2.307,0,0,1-.38-.034,3.6,3.6,0,0,0-5.835-1.094l-4.02,4.02a3.6,3.6,0,0,0,5.086,5.086l4.019-4.02c.013-.013.025-.027.037-.04a6.357,6.357,0,0,0,1.092.1Zm7.509-13.779a4.94,4.94,0,0,0-6.978,0L40.008,23.9a4.936,4.936,0,0,0-.722.915q.269-.023.539-.024a6.358,6.358,0,0,1,1.092.1c.013-.013.024-.027.037-.04l4.02-4.02a3.6,3.6,0,0,1,5.086,5.086l-4.02,4.02a3.6,3.6,0,0,1-5.833-1.093,2.291,2.291,0,0,0-.381-.034,2.253,2.253,0,0,0-.98.224,4.936,4.936,0,0,0,8.141,1.849l4.019-4.019A4.94,4.94,0,0,0,51.006,19.882ZM34.329,21.563a.669.669,0,1,0,.946,0,.669.669,0,0,0-.946,0Zm3.785-2.839.946-.946a6.029,6.029,0,0,0-8.516,0l.946.946a4.689,4.689,0,0,1,6.623,0Zm-.946.946a3.345,3.345,0,0,0-4.731,0l.946.946a2.007,2.007,0,0,1,2.839,0Z" transform="translate(-30.544 -16.017)"/>
</svg>
