<svg xmlns="http://www.w3.org/2000/svg" width="24" height="24" viewBox="0 0 24 24">
  <g id="Group_5631" data-name="Group 5631" transform="translate(-16 -356)">
    <rect id="Rectangle_2716" data-name="Rectangle 2716" width="24" height="24" transform="translate(16 356)" fill="#fff"/>
    <path id="locator_1_" data-name="locator (1)" d="M51.806,27.409a3.6,3.6,0,1,1,3.6-3.6A3.607,3.607,0,0,1,51.806,27.409Zm0-6a2.4,2.4,0,1,0,2.4,2.4A2.4,2.4,0,0,0,51.806,21.4Zm0,18.6-.517-.878c-.05-.084-4.952-8.4-6-10.2A9.948,9.948,0,0,1,44,23.806a7.806,7.806,0,1,1,15.612,0,9.949,9.949,0,0,1-1.287,5.114c-1.049,1.8-5.952,10.118-6,10.2Zm0-22.8a6.612,6.612,0,0,0-6.6,6.6,8.848,8.848,0,0,0,1.11,4.485l.009.016c.836,1.433,4.187,7.123,5.486,9.327,1.3-2.2,4.65-7.894,5.486-9.327l.009-.016a8.849,8.849,0,0,0,1.11-4.485A6.612,6.612,0,0,0,51.806,17.2Z" transform="translate(-24 340)"/>
  </g>
</svg>
