<svg xmlns="http://www.w3.org/2000/svg" width="76" height="76" viewBox="0 0 76 76">
  <g id="Location_-_Colored" data-name="Location - Colored" transform="translate(-150 -104)">
    <rect id="Rectangle_3038" data-name="Rectangle 3038" width="76" height="76" transform="translate(150 104)" fill="#fff" opacity="0"/>
    <path id="locator_1_-Colored" data-name="locator (1)-Colored" d="M68.719,52.127A11.409,11.409,0,1,1,80.127,40.719,11.421,11.421,0,0,1,68.719,52.127Zm0-19.014a7.606,7.606,0,1,0,7.606,7.606A7.615,7.615,0,0,0,68.719,33.113Zm0,58.887-1.638-2.78c-.157-.266-15.682-26.612-19-32.307C45.486,52.753,44,46.854,44,40.719a24.719,24.719,0,0,1,49.437,0c0,6.135-1.486,12.035-4.076,16.194-3.323,5.695-18.848,32.042-19,32.307Zm0-72.2A20.939,20.939,0,0,0,47.8,40.719c0,5.374,1.314,10.684,3.514,14.2l.03.05c2.648,4.539,13.26,22.557,17.372,29.536,4.112-6.98,14.724-25,17.372-29.537l.03-.049c2.2-3.521,3.514-8.83,3.514-14.2A20.939,20.939,0,0,0,68.719,19.8Z" transform="translate(119 88)" fill="#00a8af"/>
  </g>
</svg>
