<svg xmlns="http://www.w3.org/2000/svg" width="24" height="24" viewBox="0 0 24 24">
  <g id="Group_6072" data-name="Group 6072" transform="translate(-4542 -5304)">
    <g id="Group_6069" data-name="Group 6069">
      <rect id="Rectangle_2782" data-name="Rectangle 2782" width="24" height="24" transform="translate(4542 5304)" fill="#fff"/>
      <path id="appliance-flame-disabled-light" d="M36.794,22.746l1.2-1.2V35.8a4.2,4.2,0,0,1-4.2,4.2h-9.6a4.19,4.19,0,0,1-3.186-1.468l.852-.852a3,3,0,0,0,2.334,1.12h9.6a3,3,0,0,0,3-3ZM21.194,20.2a3,3,0,0,1,3-3h9.6a3,3,0,0,1,2.334,1.12l.852-.852A4.19,4.19,0,0,0,33.794,16h-9.6a4.2,4.2,0,0,0-4.2,4.2V34.454l1.2-1.2Zm5.1,4.947A13.112,13.112,0,0,0,28.357,19.8c.593.459.963,1.687,1.408,3.366.1.4.212.8.327,1.193l.974-.974q-.071-.264-.141-.527c-.582-2.19-1.183-4.456-3.131-4.456h-.6V19c0,2.153-.945,3.8-1.946,5.551-1.108,1.936-2.254,3.938-2.254,6.765,0,.046,0,.09,0,.136l1.272-1.272a13.393,13.393,0,0,1,2.021-5.032Zm7.5,6.168a5.23,5.23,0,0,1-1.371,3.7A3.157,3.157,0,0,0,32.594,34c0-1.475-.984-2.7-1.935-3.89q-.275-.341-.543-.688l-.855.855c.152.2.307.39.461.583.86,1.073,1.671,2.086,1.671,3.139a2.6,2.6,0,0,1-2.4,2.4c-1.156,0-2.4-.939-2.4-3,0-.149,0-.306.014-.468L25.436,34.1a4.854,4.854,0,0,0,.233,1.012,4.5,4.5,0,0,1-.568-.676l-.855.855A5.8,5.8,0,0,0,28.994,37.6a5.945,5.945,0,0,0,6-6.284A14.3,14.3,0,0,0,33.71,25.83l-.912.912a12.985,12.985,0,0,1,1,4.573Zm6.176-15.14-2.333,2.333-.942.942-5.244,5.244-.944.944-1.544,1.545-3.012,3.01-1.729,1.729-1.044,1.044-1.984,1.985-1.185,1.185-2.84,2.839.849.849,2.332-2.333.942-.942,2.319-2.319.915-.916.92-.918L27,30.844l1.557-1.557.873-.873,3.7-3.7,3.669-3.669,1.185-1.185,2.839-2.84-.849-.849Z" transform="translate(4524.83 5288)"/>
    </g>
  </g>
</svg>
