<svg xmlns="http://www.w3.org/2000/svg" width="76.411" height="76.411" viewBox="0 0 76.411 76.411">
  <path id="question-frame_1_" data-name="question-frame (1)" d="M51.507,58.949c0-3.878,1.1-5.765,5.031-8.543,3.039-2.1,4.035-3.669,4.035-6.237,0-3.249-2.411-5.45-6.027-5.45-3.983,0-6.394,2.1-7.18,6.342l-4.035-.524c.524-3.092,1.415-4.926,3.354-6.656A11.751,11.751,0,0,1,54.7,35.1c6.184,0,10.377,3.616,10.377,8.962a8.862,8.862,0,0,1-2.306,6.184,20.114,20.114,0,0,1-4.035,3.144c-2.778,1.834-3.406,2.987-3.406,6.132v2.253H51.507v-2.83ZM56.7,69.954a3.378,3.378,0,0,1-3.354,3.354,3.354,3.354,0,0,1,0-6.708A3.378,3.378,0,0,1,56.7,69.954Zm-2.49,22.457A38.205,38.205,0,1,1,92.411,54.205,38.249,38.249,0,0,1,54.205,92.411Zm0-72.59A34.385,34.385,0,1,0,88.59,54.205,34.424,34.424,0,0,0,54.205,19.821Z" transform="translate(-16 -16)" fill="#8b2284"/>
</svg>
