<svg xmlns="http://www.w3.org/2000/svg" width="24" height="24" viewBox="0 0 24 24">
  <g id="Group_6145" data-name="Group 6145" transform="translate(23562 -11380)">
    <rect id="Rectangle_2799" data-name="Rectangle 2799" width="24" height="24" transform="translate(-23562 11380)" fill="#fff"/>
    <path id="clock-24-7" d="M40,28a12,12,0,0,1-24,0,11.337,11.337,0,0,1,4.2-9L16,19V17.8l6.6,0,0,6.6H21.4l0-4.812A10.182,10.182,0,0,0,17.2,28,10.8,10.8,0,1,0,28,17.2V16A12.013,12.013,0,0,1,40,28Zm-6-.6H28.6V20.2H27.4v8.4H34Z" transform="translate(-23577.998 11364)"/>
  </g>
</svg>
