<svg xmlns="http://www.w3.org/2000/svg" width="76" height="76" viewBox="0 0 76 76">
  <g id="Group_6145_COLOR" data-name="Group 6145 COLOR" transform="translate(23562 -11380)">
    <rect id="Rectangle_2799" data-name="Rectangle 2799" width="76" height="76" transform="translate(-23562 11380)" fill="#fff"/>
    <path id="clock-24-7" d="M92,54a38,38,0,0,1-76,0A35.9,35.9,0,0,1,29.288,25.506L16,25.5l0-3.8,20.891.01L36.9,42.6H33.1l-.006-15.237A32.243,32.243,0,0,0,19.8,54,34.2,34.2,0,1,0,54,19.8V16A38.043,38.043,0,0,1,92,54ZM73,52.1H55.9V29.3H52.1V55.9H73Z" transform="translate(-23577.998 11364)" fill="#00a8af"/>
  </g>
</svg>
