<svg xmlns="http://www.w3.org/2000/svg" width="24" height="24" viewBox="0 0 24 24">
  <g id="Group_5576" data-name="Group 5576" transform="translate(4591 -6424)">
    <rect id="Rectangle_2704" data-name="Rectangle 2704" width="24" height="24" transform="translate(-4591 6424)" fill="#fff"/>
    <path id="clock-start" d="M31,26.5H25.5v-7h1v6H31ZM36,32a4,4,0,1,1-4-4A4,4,0,0,1,36,32Zm-1,0a3,3,0,1,0-3,3A3,3,0,0,0,35,32Zm-7.136,2.806a9,9,0,1,1,6.941-6.943,5.039,5.039,0,0,1,.853.733A10,10,0,1,0,28.6,35.658,5.039,5.039,0,0,1,27.864,34.806ZM33.5,32,31,30.5v3Z" transform="translate(-4605 6410)"/>
  </g>
</svg>
