<svg xmlns="http://www.w3.org/2000/svg" width="20.001" height="20" viewBox="0 0 20.001 20">
  <path id="settings" d="M26,30.067A4.063,4.063,0,1,1,30.063,26,4.067,4.067,0,0,1,26,30.067Zm0-7.125A3.063,3.063,0,1,0,29.063,26,3.066,3.066,0,0,0,26,22.942ZM26,36a10.109,10.109,0,0,1-1.578-.125l-.323-.051-.58-2.217a7.976,7.976,0,0,1-1.143-.474L20.4,34.294l-.264-.192A10.035,10.035,0,0,1,17.9,31.87l-.192-.264,1.157-1.976a7.969,7.969,0,0,1-.477-1.149l-2.215-.574-.051-.324a10.021,10.021,0,0,1,0-3.157l.051-.323,2.217-.58a7.971,7.971,0,0,1,.475-1.144L17.711,20.4l.192-.264a10.035,10.035,0,0,1,2.233-2.233l.264-.192,1.976,1.157a7.963,7.963,0,0,1,1.149-.477l.574-2.215.324-.051a10.066,10.066,0,0,1,3.157,0l.323.051.58,2.217a7.959,7.959,0,0,1,1.143.475L31.6,17.715l.264.192A10.035,10.035,0,0,1,34.1,20.139l.192.264L33.133,22.38a7.972,7.972,0,0,1,.477,1.149l2.215.574.051.324a10.012,10.012,0,0,1,0,3.157l-.051.323-2.217.58a7.973,7.973,0,0,1-.475,1.144l1.157,1.976-.192.264A10.035,10.035,0,0,1,31.865,34.1l-.264.192-1.976-1.157a7.975,7.975,0,0,1-1.149.477L27.9,35.828l-.324.051A10.111,10.111,0,0,1,26,36Zm-1.1-1.068a9.013,9.013,0,0,0,2.2,0l.55-2.122.275-.079a6.961,6.961,0,0,0,1.468-.609l.249-.139L31.537,33.1a9.03,9.03,0,0,0,1.556-1.556l-1.109-1.894.139-.249a6.968,6.968,0,0,0,.608-1.463l.079-.274,2.124-.556a8.974,8.974,0,0,0,0-2.2l-2.122-.55-.079-.275a6.967,6.967,0,0,0-.609-1.469l-.139-.249,1.109-1.894a9.028,9.028,0,0,0-1.556-1.556L29.642,20.02l-.249-.139a6.963,6.963,0,0,0-1.462-.607l-.274-.079L27.1,17.072a9.015,9.015,0,0,0-2.2,0l-.55,2.122-.275.079a6.963,6.963,0,0,0-1.469.609l-.249.139-1.894-1.109a9.028,9.028,0,0,0-1.556,1.556l1.109,1.894-.139.249a6.964,6.964,0,0,0-.608,1.463l-.079.274-2.124.556a8.99,8.99,0,0,0,0,2.2l2.122.55.079.275a6.96,6.96,0,0,0,.609,1.469l.139.25-1.109,1.894A9.026,9.026,0,0,0,20.464,33.1l1.895-1.109.249.139a6.967,6.967,0,0,0,1.463.607l.274.078.556,2.124Z" transform="translate(-16 -16.005)"/>
</svg>
