<svg xmlns="http://www.w3.org/2000/svg" width="76.411" height="76.411" viewBox="0 0 76.411 76.411">
  <g id="Group_1379" data-name="Group 1379" transform="translate(-118 -236)">
    <circle id="Ellipse_9" data-name="Ellipse 9" cx="38.206" cy="38.206" r="38.206" transform="translate(118 236)" fill="#fff"/>
    <path id="Ellipse_9_-_Outline" data-name="Ellipse 9 - Outline" d="M38.206,4A34.216,34.216,0,0,0,24.892,69.725,34.215,34.215,0,0,0,51.519,6.686,33.988,33.988,0,0,0,38.206,4m0-4A38.206,38.206,0,1,1,0,38.206,38.206,38.206,0,0,1,38.206,0Z" transform="translate(118 236)" fill="#006c3a"/>
    <path id="checkmark" d="M45,76.442,33.2,65.175,34.744,63.7,45,73.448,66.3,53.2l1.544,1.471Z" transform="translate(105.804 209.535)" fill="#006c3a"/>
    <path id="checkmark_-_Outline" data-name="checkmark - Outline" d="M45,77.824,31.751,65.175l2.993-2.85L45,72.068,66.3,51.82l2.994,2.851ZM34.649,65.176,45,75.06,66.39,54.671l-.1-.091L45,74.827,34.745,65.085Z" transform="translate(105.804 209.535)" fill="#006c3a"/>
  </g>
</svg>
