<svg xmlns="http://www.w3.org/2000/svg" width="22.646" height="24" viewBox="0 0 22.646 24">
  <path id="sun-ice" d="M43.114,29.681,39.829,31.6,43.09,33.48l-.6,1.039-3.261-1.883-.017,3.8-1.2-.005.02-4.489L33,29.039v5.813l3.9,2.227-.6,1.042L33,36.234V40H31.8V16H33v3.766l3.3-1.887.6,1.042L33,21.148v5.813l5.034-2.906-.02-4.489,1.2-.005.017,3.8L42.49,21.48l.6,1.039L39.829,24.4l3.285,1.916-.6,1.037-3.878-2.262L33.6,28l5.034,2.906,3.878-2.262.6,1.037Zm-13.99-9.658L27.746,16.7l-1.109.459,1.378,3.326ZM20.468,32.052l.459,1.109,3.326-1.378-.459-1.108-3.326,1.378Zm6.17,6.819,1.108.459,1.345-3.247-1.109-.459-1.345,3.247ZM24.175,24.212l-3.247-1.345-.459,1.108,3.247,1.345.459-1.108ZM25.2,28a6.61,6.61,0,0,0,5.4,6.489V33.264a5.4,5.4,0,0,1,0-10.528V21.511A6.61,6.61,0,0,0,25.2,28Z" transform="translate(-20.468 -16)"/>
</svg>
