<svg xmlns="http://www.w3.org/2000/svg" width="24" height="24" viewBox="0 0 24 24">
  <g id="Group_6138" data-name="Group 6138" transform="translate(-21 -201)">
    <rect id="Rectangle_2797" data-name="Rectangle 2797" width="24" height="24" transform="translate(21 201)" fill="#fff"/>
    <path id="sun" d="M28,34a6,6,0,1,1,6-6A6.007,6.007,0,0,1,28,34Zm0-10.8A4.8,4.8,0,1,0,32.8,28,4.805,4.805,0,0,0,28,23.2Zm.6-7.2H27.4v4.8h1.2Zm0,19.2H27.4V40h1.2ZM40,27.4H35.2v1.2H40Zm-19.2,0H16v1.2h4.8Zm16.11-7.461-.849-.849-3.394,3.394.849.849ZM23.333,33.516l-.849-.849L19.09,36.061l.849.849,3.394-3.394ZM36.91,36.061l-3.394-3.394-.849.849,3.394,3.394ZM23.333,22.485,19.939,19.09l-.849.849,3.394,3.394.849-.849Z" transform="translate(5 185)"/>
  </g>
</svg>
