<svg xmlns="http://www.w3.org/2000/svg" width="19.961" height="25.207" viewBox="0 0 19.961 25.207">
  <g transform="translate(-15.5 -291.793)">
    <path id="UES" d="M0,24V9.747l.071-.071L9.747,0l7.826,7.826-.342.342L9.747.684.484,9.947V23.516H11.3l-.042-2.243L9.189,20.087a4.719,4.719,0,0,1-1.25.548,3.384,3.384,0,0,1-.871.12,2.59,2.59,0,0,1-1.881-.786,5.211,5.211,0,0,1-1.362-3.375,8.157,8.157,0,0,1,.08-1.918h0l.026-.137.138-.026a8.172,8.172,0,0,1,1.918-.08A5.212,5.212,0,0,1,9.36,15.8a2.707,2.707,0,0,1,.666,2.752A4.722,4.722,0,0,1,9.478,19.8l1.776,1.039v-2.6l.068-.065,1.161-1.2a5.39,5.39,0,0,1-.625-1.426,3.09,3.09,0,0,1,.76-3.141,5.949,5.949,0,0,1,3.852-1.555,9.345,9.345,0,0,1,2.189.091l.157.03.029.157a9.328,9.328,0,0,1,.091,2.189,5.949,5.949,0,0,1-1.555,3.852,2.955,2.955,0,0,1-2.147.9,3.868,3.868,0,0,1-.995-.137,5.389,5.389,0,0,1-1.426-.626l-1.074,1.074L11.783,24Zm4.285-9.106c-.088.635-.34,3.255,1.192,4.786a2.287,2.287,0,0,0,2.346.563,4.317,4.317,0,0,0,1.068-.454L9.18,19.5c.334-.566,1.112-2.193-.109-3.415a5.249,5.249,0,0,0-3.706-1.262A8.138,8.138,0,0,0,4.285,14.894Zm12.4-1.458-3.528,3.528a4.919,4.919,0,0,0,1.219.518,2.61,2.61,0,0,0,2.679-.643c1.748-1.748,1.461-4.738,1.361-5.463-.725-.1-3.718-.385-5.463,1.36-1.394,1.394-.506,3.252-.125,3.9l3.528-3.528Z" transform="translate(16 292.5)"/>
    <path id="UES_-_Outline" data-name="UES - Outline" d="M12.287,24.5H-.5V9.54L9.747-.707,18.28,7.826,17.231,8.876,9.747,1.391.984,10.155V23.016h9.8l-.027-1.451-1.568-.9a5.166,5.166,0,0,1-1.123.454,3.9,3.9,0,0,1-1,.137,3.1,3.1,0,0,1-2.234-.932,5.7,5.7,0,0,1-1.507-3.692,9.149,9.149,0,0,1,.011-1.454H3.3l.2-1.066.474-.089a8.184,8.184,0,0,1,1.395-.11c.219,0,.438.008.652.024a5.7,5.7,0,0,1,3.691,1.507,3.223,3.223,0,0,1,.8,3.235,5.065,5.065,0,0,1-.357.936l.6.352V18.023l.216-.206.891-.921a5.8,5.8,0,0,1-.487-1.221,3.566,3.566,0,0,1,.89-3.624,6.436,6.436,0,0,1,4.169-1.7c.242-.018.49-.027.738-.027a9.336,9.336,0,0,1,1.579.125l.495.093.092.493a9.7,9.7,0,0,1,.1,2.317,6.436,6.436,0,0,1-1.7,4.169,3.471,3.471,0,0,1-2.5,1.044,4.382,4.382,0,0,1-1.123-.154,5.8,5.8,0,0,1-1.215-.484l-.654.654ZM4.739,15.348A5.263,5.263,0,0,0,5.83,19.326a1.671,1.671,0,0,0,1.233.521,2.5,2.5,0,0,0,.633-.088,3.766,3.766,0,0,0,.888-.37l.2-.2a2.26,2.26,0,0,0-.063-2.754,4.755,4.755,0,0,0-3.352-1.115C5.127,15.324,4.914,15.334,4.739,15.348ZM14,16.827a3.972,3.972,0,0,0,.5.17,2.925,2.925,0,0,0,.741.1,1.974,1.974,0,0,0,1.457-.616c1.367-1.367,1.345-3.664,1.261-4.656-.212-.018-.479-.033-.78-.033A5.5,5.5,0,0,0,13.3,13.089a2.37,2.37,0,0,0-.341,2.7L16.351,12.4l1.037,1.038Z" transform="translate(16 292.5)"/>
  </g>
</svg>
