<svg xmlns="http://www.w3.org/2000/svg" width="76.003" height="76" viewBox="0 0 76.003 76">
  <g id="Group_6378" data-name="Group 6378" transform="translate(22998.003 3561)">
    <rect id="Rectangle_3071" data-name="Rectangle 3071" width="76" height="76" transform="translate(-22998 -3561)" fill="#fff" opacity="0"/>
    <path id="wifi_1_" data-name="wifi (1)" d="M68.376,80.2a19.193,19.193,0,0,0-27.143,0l-2.714-2.714a23.031,23.031,0,0,1,32.571,0ZM81.947,66.625a38.43,38.43,0,0,0-54.286,0l2.714,2.714a34.587,34.587,0,0,1,48.858,0ZM92.8,55.767a53.8,53.8,0,0,0-76,0l2.714,2.714a49.959,49.959,0,0,1,70.572,0Zm-38,32.147a5.374,5.374,0,1,0,5.374,5.374A5.374,5.374,0,0,0,54.8,87.914Z" transform="translate(-23014.807 -3591.553)" fill="#00a8af"/>
  </g>
</svg>
