<svg xmlns="http://www.w3.org/2000/svg" width="24.001" height="24" viewBox="0 0 24.001 24">
  <g id="Group_6377" data-name="Group 6377" transform="translate(22998.001 3561)">
    <rect id="Rectangle_3071" data-name="Rectangle 3071" width="24" height="24" transform="translate(-22998 -3561)" fill="#fff" opacity="0"/>
    <path id="wifi_1_" data-name="wifi (1)" d="M33.09,52.73a6.061,6.061,0,0,0-8.571,0l-.857-.857a7.273,7.273,0,0,1,10.286,0Zm4.286-4.286a12.136,12.136,0,0,0-17.143,0l.857.857a10.922,10.922,0,0,1,15.429,0ZM40.8,45.015a16.99,16.99,0,0,0-24,0l.857.857a15.776,15.776,0,0,1,22.286,0Zm-12,10.152a1.7,1.7,0,1,0,1.7,1.7A1.7,1.7,0,0,0,28.8,55.167Z" transform="translate(-23014.805 -3598.053)"/>
  </g>
</svg>
